<svg width="250" height="250" viewBox="0 0 250 250" fill="none" xmlns="http://www.w3.org/2000/svg">
<path d="M62.0699 45.0714H76.6306C79.052 45.0714 81.2913 45.4036 83.3484 46.0679C85.427 46.7321 87.0984 47.825 88.3627 49.3464C89.6484 50.8464 90.2913 52.8821 90.2913 55.4536C90.2913 57.1464 89.9699 58.6571 89.327 59.9857C88.7056 61.3143 87.8699 62.4071 86.8199 63.2643C85.7913 64.1 84.6663 64.6571 83.4449 64.9357C84.5163 65.0643 85.5556 65.375 86.5627 65.8679C87.5913 66.3393 88.5127 67.0036 89.327 67.8607C90.1627 68.6964 90.8163 69.7464 91.2877 71.0107C91.7806 72.2536 92.027 73.7321 92.027 75.4464C92.027 77.825 91.4913 79.925 90.4199 81.7464C89.3699 83.5464 87.827 84.9607 85.7913 85.9893C83.777 86.9964 81.302 87.5 78.3663 87.5H62.0699V45.0714ZM71.6806 79.8179H76.052C77.4234 79.8179 78.5377 79.6143 79.3949 79.2071C80.2734 78.7786 80.9163 78.1786 81.3234 77.4071C81.7306 76.6143 81.9341 75.6714 81.9341 74.5786C81.9341 72.8643 81.3984 71.6107 80.327 70.8179C79.277 70.0036 77.7984 69.5964 75.8913 69.5964H71.6806V79.8179ZM71.6806 62.075H75.5699C76.7056 62.075 77.6484 61.8714 78.3984 61.4643C79.1699 61.0571 79.7484 60.4893 80.1341 59.7607C80.5413 59.0107 80.7449 58.1536 80.7449 57.1893C80.7449 55.4536 80.252 54.2857 79.2663 53.6857C78.2806 53.0643 76.9306 52.7536 75.2163 52.7536H71.6806V62.075Z" fill="#F6DBCC"/>
<path d="M110.977 45.0714H120.524L137.27 87.5H127.017L123.931 78.9821H107.602L104.484 87.5H94.1987L110.977 45.0714ZM110.817 70.5607H120.749L115.831 56.6429H115.734L110.817 70.5607Z" fill="#F6DBCC"/>
<path d="M185.856 45.0714V87.5H176.277V62.525L176.695 55.4214L175.056 63.5536L167.92 84.0929H158.502L151.399 63.5536L149.792 55.4214L150.21 62.525V87.5H140.599V45.0714H154.099L162.649 73.3893L163.227 76.7643L163.806 73.3893L172.356 45.0714H185.856Z" fill="#F6DBCC"/>
<path d="M62.2582 104H76.8189C79.2403 104 81.4796 104.332 83.5368 104.996C85.6153 105.661 87.2868 106.754 88.5511 108.275C89.8368 109.775 90.4796 111.811 90.4796 114.382C90.4796 116.075 90.1582 117.586 89.5153 118.914C88.8939 120.243 88.0582 121.336 87.0082 122.193C85.9796 123.029 84.8546 123.586 83.6332 123.864C84.7046 123.993 85.7439 124.304 86.7511 124.796C87.7796 125.268 88.7011 125.932 89.5153 126.789C90.3511 127.625 91.0046 128.675 91.4761 129.939C91.9689 131.182 92.2153 132.661 92.2153 134.375C92.2153 136.754 91.6796 138.854 90.6082 140.675C89.5582 142.475 88.0153 143.889 85.9796 144.918C83.9653 145.925 81.4903 146.429 78.5546 146.429H62.2582V104ZM71.8689 138.746H76.2403C77.6118 138.746 78.7261 138.543 79.5832 138.136C80.4618 137.707 81.1046 137.107 81.5118 136.336C81.9189 135.543 82.1225 134.6 82.1225 133.507C82.1225 131.793 81.5868 130.539 80.5153 129.746C79.4653 128.932 77.9868 128.525 76.0796 128.525H71.8689V138.746ZM71.8689 121.004H75.7582C76.8939 121.004 77.8368 120.8 78.5868 120.393C79.3582 119.986 79.9368 119.418 80.3225 118.689C80.7296 117.939 80.9332 117.082 80.9332 116.118C80.9332 114.382 80.4403 113.214 79.4546 112.614C78.4689 111.993 77.1189 111.682 75.4046 111.682H71.8689V121.004Z" fill="#F6DBCC"/>
<path d="M106.557 125.182C106.557 127.604 107.05 129.8 108.036 131.771C109.043 133.721 110.425 135.275 112.182 136.432C113.961 137.589 116.018 138.168 118.354 138.168C120.689 138.168 122.736 137.589 124.493 136.432C126.271 135.275 127.654 133.721 128.639 131.771C129.646 129.8 130.15 127.604 130.15 125.182C130.15 122.761 129.646 120.575 128.639 118.625C127.654 116.675 126.271 115.121 124.493 113.964C122.736 112.786 120.689 112.196 118.354 112.196C116.018 112.196 113.961 112.786 112.182 113.964C110.425 115.121 109.043 116.675 108.036 118.625C107.05 120.575 106.557 122.761 106.557 125.182ZM96.5606 125.182C96.5606 122.096 97.1071 119.225 98.1999 116.568C99.2928 113.889 100.825 111.554 102.796 109.561C104.768 107.568 107.082 106.014 109.739 104.9C112.396 103.786 115.268 103.229 118.354 103.229C121.482 103.229 124.364 103.786 127 104.9C129.657 106.014 131.961 107.568 133.911 109.561C135.882 111.554 137.404 113.889 138.475 116.568C139.568 119.225 140.114 122.096 140.114 125.182C140.114 128.289 139.589 131.182 138.539 133.861C137.489 136.518 135.989 138.854 134.039 140.868C132.089 142.861 129.786 144.414 127.129 145.529C124.471 146.643 121.546 147.2 118.354 147.2C115.096 147.2 112.129 146.643 109.45 145.529C106.793 144.414 104.5 142.861 102.571 140.868C100.643 138.854 99.1535 136.518 98.1035 133.861C97.0749 131.182 96.5606 128.289 96.5606 125.182Z" fill="#F6DBCC"/>
<path d="M154.269 125.182C154.269 127.604 154.762 129.8 155.748 131.771C156.755 133.721 158.137 135.275 159.894 136.432C161.673 137.589 163.73 138.168 166.066 138.168C168.401 138.168 170.448 137.589 172.205 136.432C173.983 135.275 175.366 133.721 176.351 131.771C177.358 129.8 177.862 127.604 177.862 125.182C177.862 122.761 177.358 120.575 176.351 118.625C175.366 116.675 173.983 115.121 172.205 113.964C170.448 112.786 168.401 112.196 166.066 112.196C163.73 112.196 161.673 112.786 159.894 113.964C158.137 115.121 156.755 116.675 155.748 118.625C154.762 120.575 154.269 122.761 154.269 125.182ZM144.273 125.182C144.273 122.096 144.819 119.225 145.912 116.568C147.005 113.889 148.537 111.554 150.508 109.561C152.48 107.568 154.794 106.014 157.451 104.9C160.108 103.786 162.98 103.229 166.066 103.229C169.194 103.229 172.076 103.786 174.712 104.9C177.369 106.014 179.673 107.568 181.623 109.561C183.594 111.554 185.116 113.889 186.187 116.568C187.28 119.225 187.826 122.096 187.826 125.182C187.826 128.289 187.301 131.182 186.251 133.861C185.201 136.518 183.701 138.854 181.751 140.868C179.801 142.861 177.498 144.414 174.841 145.529C172.183 146.643 169.258 147.2 166.066 147.2C162.808 147.2 159.841 146.643 157.162 145.529C154.505 144.414 152.212 142.861 150.283 140.868C148.355 138.854 146.866 136.518 145.816 133.861C144.787 131.182 144.273 128.289 144.273 125.182Z" fill="#F6DBCC"/>
<path d="M78.8668 162.157C81.5025 162.157 83.806 162.446 85.7775 163.025C87.7489 163.604 89.3346 164.214 90.5346 164.857C91.7346 165.5 92.4632 165.929 92.7203 166.143L88.0918 173.889C87.7489 173.632 87.1596 173.257 86.3239 172.764C85.5096 172.271 84.5346 171.832 83.3989 171.446C82.2846 171.061 81.1168 170.868 79.8953 170.868C78.2453 170.868 76.906 171.168 75.8775 171.768C74.8703 172.346 74.3668 173.214 74.3668 174.371C74.3668 175.164 74.6346 175.882 75.1703 176.525C75.7275 177.146 76.5632 177.746 77.6775 178.325C78.8132 178.882 80.2489 179.493 81.9846 180.157C83.5703 180.736 85.0596 181.421 86.4525 182.214C87.8453 183.007 89.0668 183.95 90.1168 185.043C91.1882 186.114 92.0346 187.357 92.656 188.771C93.2775 190.186 93.5882 191.793 93.5882 193.593C93.5882 195.736 93.1489 197.6 92.2703 199.186C91.3918 200.75 90.1918 202.046 88.6703 203.075C87.1703 204.104 85.456 204.864 83.5275 205.357C81.6203 205.871 79.6382 206.129 77.581 206.129C74.6668 206.129 72.0525 205.796 69.7382 205.132C67.4453 204.468 65.5918 203.75 64.1775 202.979C62.7632 202.207 61.9168 201.693 61.6382 201.436L66.4275 193.368C66.6846 193.561 67.1775 193.871 67.906 194.3C68.656 194.729 69.5668 195.179 70.6382 195.65C71.7096 196.1 72.8453 196.486 74.0453 196.807C75.2668 197.129 76.4668 197.289 77.6453 197.289C79.6168 197.289 81.0953 196.914 82.081 196.164C83.0668 195.393 83.5596 194.386 83.5596 193.143C83.5596 192.221 83.2489 191.396 82.6275 190.668C82.006 189.939 81.0739 189.254 79.831 188.611C78.5882 187.946 77.0346 187.25 75.1703 186.521C73.306 185.771 71.5596 184.861 69.931 183.789C68.3239 182.718 67.0168 181.379 66.0096 179.771C65.0025 178.164 64.4989 176.171 64.4989 173.793C64.4989 171.414 65.1632 169.357 66.4918 167.621C67.8418 165.864 69.6096 164.514 71.7953 163.571C74.0025 162.629 76.3596 162.157 78.8668 162.157Z" fill="#F6DBCC"/>
<path d="M125.061 183.436L141.196 205.357H129.721L116.671 186.811V205.357H107.061V162.929H116.671V180.286L128.693 162.929H139.525L125.061 183.436Z" fill="#F6DBCC"/>
<path d="M164.153 190.089L149.528 162.929H161.196L168.942 179.096L176.721 162.929H188.324L173.764 190.089V205.357H164.153V190.089Z" fill="#F6DBCC"/>
<circle cx="125" cy="125" r="121" stroke="#F6DBCC" stroke-width="8"/>
</svg>
