<svg width="250" height="250" viewBox="0 0 250 250" fill="none" xmlns="http://www.w3.org/2000/svg">
<path d="M62.0697 45.0714H76.6304C79.0519 45.0714 81.2912 45.4036 83.3483 46.0679C85.4269 46.7321 87.0983 47.825 88.3626 49.3464C89.6483 50.8464 90.2912 52.8821 90.2912 55.4536C90.2912 57.1464 89.9697 58.6571 89.3269 59.9857C88.7054 61.3143 87.8697 62.4071 86.8197 63.2643C85.7912 64.1 84.6662 64.6571 83.4447 64.9357C84.5162 65.0643 85.5554 65.375 86.5626 65.8679C87.5912 66.3393 88.5126 67.0036 89.3269 67.8607C90.1626 68.6964 90.8162 69.7464 91.2876 71.0107C91.7804 72.2536 92.0269 73.7321 92.0269 75.4464C92.0269 77.825 91.4912 79.925 90.4197 81.7464C89.3697 83.5464 87.8269 84.9607 85.7912 85.9893C83.7769 86.9964 81.3019 87.5 78.3662 87.5H62.0697V45.0714ZM71.6804 79.8179H76.0519C77.4233 79.8179 78.5376 79.6143 79.3947 79.2071C80.2733 78.7786 80.9162 78.1786 81.3233 77.4071C81.7304 76.6143 81.934 75.6714 81.934 74.5786C81.934 72.8643 81.3983 71.6107 80.3269 70.8179C79.2769 70.0036 77.7983 69.5964 75.8912 69.5964H71.6804V79.8179ZM71.6804 62.075H75.5697C76.7054 62.075 77.6483 61.8714 78.3983 61.4643C79.1697 61.0571 79.7483 60.4893 80.134 59.7607C80.5412 59.0107 80.7447 58.1536 80.7447 57.1893C80.7447 55.4536 80.2519 54.2857 79.2662 53.6857C78.2804 53.0643 76.9304 52.7536 75.2162 52.7536H71.6804V62.075Z" fill="#BFD4EF"/>
<path d="M110.977 45.0714H120.524L137.27 87.5H127.016L123.931 78.9821H107.602L104.484 87.5H94.1985L110.977 45.0714ZM110.816 70.5607H120.749L115.831 56.6429H115.734L110.816 70.5607Z" fill="#BFD4EF"/>
<path d="M185.856 45.0714V87.5H176.277V62.525L176.695 55.4214L175.056 63.5536L167.92 84.0929H158.502L151.399 63.5536L149.792 55.4214L150.209 62.525V87.5H140.599V45.0714H154.099L162.649 73.3893L163.227 76.7643L163.806 73.3893L172.356 45.0714H185.856Z" fill="#BFD4EF"/>
<path d="M62.2581 104H76.8188C79.2402 104 81.4795 104.332 83.5366 104.996C85.6152 105.661 87.2866 106.754 88.5509 108.275C89.8366 109.775 90.4795 111.811 90.4795 114.382C90.4795 116.075 90.1581 117.586 89.5152 118.914C88.8938 120.243 88.0581 121.336 87.0081 122.193C85.9795 123.029 84.8545 123.586 83.6331 123.864C84.7045 123.993 85.7438 124.304 86.7509 124.796C87.7795 125.268 88.7009 125.932 89.5152 126.789C90.3509 127.625 91.0045 128.675 91.4759 129.939C91.9688 131.182 92.2152 132.661 92.2152 134.375C92.2152 136.754 91.6795 138.854 90.6081 140.675C89.5581 142.475 88.0152 143.889 85.9795 144.918C83.9652 145.925 81.4902 146.429 78.5545 146.429H62.2581V104ZM71.8688 138.746H76.2402C77.6116 138.746 78.7259 138.543 79.5831 138.136C80.4616 137.707 81.1045 137.107 81.5116 136.336C81.9188 135.543 82.1224 134.6 82.1224 133.507C82.1224 131.793 81.5866 130.539 80.5152 129.746C79.4652 128.932 77.9866 128.525 76.0795 128.525H71.8688V138.746ZM71.8688 121.004H75.7581C76.8938 121.004 77.8366 120.8 78.5866 120.393C79.3581 119.986 79.9366 119.418 80.3224 118.689C80.7295 117.939 80.9331 117.082 80.9331 116.118C80.9331 114.382 80.4402 113.214 79.4545 112.614C78.4688 111.993 77.1188 111.682 75.4045 111.682H71.8688V121.004Z" fill="#BFD4EF"/>
<path d="M106.557 125.182C106.557 127.604 107.05 129.8 108.036 131.771C109.043 133.721 110.425 135.275 112.182 136.432C113.961 137.589 116.018 138.168 118.353 138.168C120.689 138.168 122.736 137.589 124.493 136.432C126.271 135.275 127.653 133.721 128.639 131.771C129.646 129.8 130.15 127.604 130.15 125.182C130.15 122.761 129.646 120.575 128.639 118.625C127.653 116.675 126.271 115.121 124.493 113.964C122.736 112.786 120.689 112.196 118.353 112.196C116.018 112.196 113.961 112.786 112.182 113.964C110.425 115.121 109.043 116.675 108.036 118.625C107.05 120.575 106.557 122.761 106.557 125.182ZM96.5605 125.182C96.5605 122.096 97.107 119.225 98.1998 116.568C99.2927 113.889 100.825 111.554 102.796 109.561C104.768 107.568 107.082 106.014 109.739 104.9C112.396 103.786 115.268 103.229 118.353 103.229C121.482 103.229 124.364 103.786 127 104.9C129.657 106.014 131.961 107.568 133.911 109.561C135.882 111.554 137.403 113.889 138.475 116.568C139.568 119.225 140.114 122.096 140.114 125.182C140.114 128.289 139.589 131.182 138.539 133.861C137.489 136.518 135.989 138.854 134.039 140.868C132.089 142.861 129.786 144.414 127.128 145.529C124.471 146.643 121.546 147.2 118.353 147.2C115.096 147.2 112.128 146.643 109.45 145.529C106.793 144.414 104.5 142.861 102.571 140.868C100.643 138.854 99.1534 136.518 98.1034 133.861C97.0748 131.182 96.5605 128.289 96.5605 125.182Z" fill="#BFD4EF"/>
<path d="M154.269 125.182C154.269 127.604 154.762 129.8 155.748 131.771C156.755 133.721 158.137 135.275 159.894 136.432C161.673 137.589 163.73 138.168 166.065 138.168C168.401 138.168 170.448 137.589 172.205 136.432C173.983 135.275 175.365 133.721 176.351 131.771C177.358 129.8 177.862 127.604 177.862 125.182C177.862 122.761 177.358 120.575 176.351 118.625C175.365 116.675 173.983 115.121 172.205 113.964C170.448 112.786 168.401 112.196 166.065 112.196C163.73 112.196 161.673 112.786 159.894 113.964C158.137 115.121 156.755 116.675 155.748 118.625C154.762 120.575 154.269 122.761 154.269 125.182ZM144.273 125.182C144.273 122.096 144.819 119.225 145.912 116.568C147.005 113.889 148.537 111.554 150.508 109.561C152.48 107.568 154.794 106.014 157.451 104.9C160.108 103.786 162.98 103.229 166.065 103.229C169.194 103.229 172.076 103.786 174.712 104.9C177.369 106.014 179.673 107.568 181.623 109.561C183.594 111.554 185.115 113.889 186.187 116.568C187.28 119.225 187.826 122.096 187.826 125.182C187.826 128.289 187.301 131.182 186.251 133.861C185.201 136.518 183.701 138.854 181.751 140.868C179.801 142.861 177.498 144.414 174.84 145.529C172.183 146.643 169.258 147.2 166.065 147.2C162.808 147.2 159.84 146.643 157.162 145.529C154.505 144.414 152.212 142.861 150.283 140.868C148.355 138.854 146.865 136.518 145.815 133.861C144.787 131.182 144.273 128.289 144.273 125.182Z" fill="#BFD4EF"/>
<path d="M78.8666 162.157C81.5023 162.157 83.8059 162.446 85.7773 163.025C87.7488 163.604 89.3345 164.214 90.5345 164.857C91.7345 165.5 92.4631 165.929 92.7202 166.143L88.0916 173.889C87.7488 173.632 87.1595 173.257 86.3238 172.764C85.5095 172.271 84.5345 171.832 83.3988 171.446C82.2845 171.061 81.1166 170.868 79.8952 170.868C78.2452 170.868 76.9059 171.168 75.8773 171.768C74.8702 172.346 74.3666 173.214 74.3666 174.371C74.3666 175.164 74.6345 175.882 75.1702 176.525C75.7273 177.146 76.5631 177.746 77.6773 178.325C78.8131 178.882 80.2488 179.493 81.9845 180.157C83.5702 180.736 85.0595 181.421 86.4523 182.214C87.8452 183.007 89.0666 183.95 90.1166 185.043C91.1881 186.114 92.0345 187.357 92.6559 188.771C93.2773 190.186 93.5881 191.793 93.5881 193.593C93.5881 195.736 93.1488 197.6 92.2702 199.186C91.3916 200.75 90.1916 202.046 88.6702 203.075C87.1702 204.104 85.4559 204.864 83.5273 205.357C81.6202 205.871 79.6381 206.129 77.5809 206.129C74.6666 206.129 72.0523 205.796 69.7381 205.132C67.4452 204.468 65.5916 203.75 64.1773 202.979C62.7631 202.207 61.9166 201.693 61.6381 201.436L66.4273 193.368C66.6845 193.561 67.1773 193.871 67.9059 194.3C68.6559 194.729 69.5666 195.179 70.6381 195.65C71.7095 196.1 72.8452 196.486 74.0452 196.807C75.2666 197.129 76.4666 197.289 77.6452 197.289C79.6166 197.289 81.0952 196.914 82.0809 196.164C83.0666 195.393 83.5595 194.386 83.5595 193.143C83.5595 192.221 83.2488 191.396 82.6273 190.668C82.0059 189.939 81.0738 189.254 79.8309 188.611C78.5881 187.946 77.0345 187.25 75.1702 186.521C73.3059 185.771 71.5595 184.861 69.9309 183.789C68.3238 182.718 67.0166 181.379 66.0095 179.771C65.0023 178.164 64.4988 176.171 64.4988 173.793C64.4988 171.414 65.1631 169.357 66.4916 167.621C67.8416 165.864 69.6095 164.514 71.7952 163.571C74.0023 162.629 76.3595 162.157 78.8666 162.157Z" fill="#BFD4EF"/>
<path d="M125.06 183.436L141.196 205.357H129.721L116.671 186.811V205.357H107.06V162.929H116.671V180.286L128.693 162.929H139.525L125.06 183.436Z" fill="#BFD4EF"/>
<path d="M164.153 190.089L149.528 162.929H161.196L168.942 179.096L176.721 162.929H188.324L173.763 190.089V205.357H164.153V190.089Z" fill="#BFD4EF"/>
<circle cx="125" cy="125" r="121" stroke="#BFD4EF" stroke-width="8"/>
</svg>
