<svg width="128" height="130" viewBox="0 0 128 130" fill="none" xmlns="http://www.w3.org/2000/svg">
<g filter="url(#filter0_g_44_291)">
<path d="M31.2393 119.677L34.5212 113.974L33.0564 113.131L33.4155 112.507L37.0558 114.602L36.6967 115.226L35.2319 114.383L31.95 120.086L31.2393 119.677ZM34.5166 121.499L37.6389 114.9L38.362 115.242L37.0447 118.026L39.1237 119.01L40.441 116.226L41.1641 116.568L38.0419 123.167L37.3187 122.824L38.8157 119.661L36.7367 118.677L35.2397 121.841L34.5166 121.499ZM38.9701 123.579L43.2872 117.42L44.2015 117.773L43.2616 125.235L42.4966 124.94L43.4245 118.481L43.3872 118.466L39.7351 123.874L38.9701 123.579ZM40.5486 122.044L40.8006 121.391L43.3755 122.385L43.1234 123.038L40.5486 122.044ZM44.48 125.617L44.6722 124.944L45.9607 125.311L47.58 119.638L46.2914 119.27L46.4836 118.597L49.8492 119.558L49.657 120.231L48.3685 119.863L46.7492 125.537L48.0378 125.904L47.8456 126.577L44.48 125.617ZM55.5842 120.727C55.8809 120.714 56.136 120.714 56.3495 120.725C56.5703 120.731 56.7801 120.745 56.9787 120.769C57.5813 120.839 58.0558 120.971 58.4023 121.166C58.7495 121.354 58.9866 121.623 59.1135 121.974C59.2412 122.318 59.2738 122.758 59.2113 123.294C59.1487 123.83 59.0154 124.255 58.8112 124.566C58.6078 124.871 58.3152 125.079 57.9332 125.189C57.552 125.292 57.0602 125.309 56.4576 125.238C56.2788 125.217 56.1041 125.19 55.9335 125.157C55.7695 125.124 55.5963 125.084 55.414 125.036L55.7533 124.371C55.9224 124.417 56.0757 124.455 56.2132 124.485C56.3507 124.514 56.4824 124.536 56.6082 124.551C57.0055 124.597 57.3258 124.584 57.5691 124.512C57.8191 124.441 58.0102 124.298 58.1424 124.086C58.2746 123.873 58.3623 123.581 58.4055 123.21C58.4496 122.833 58.4313 122.529 58.3509 122.298C58.2712 122.06 58.1179 121.878 57.8911 121.751C57.6709 121.624 57.3622 121.538 56.9649 121.492C56.8324 121.476 56.6926 121.467 56.5454 121.463C56.4055 121.453 56.2443 121.455 56.0617 121.467L56.3325 121.217L55.5357 128.05L54.7411 127.958L55.5842 120.727ZM57.7805 128.312L55.6772 124.765L56.591 124.871L58.7142 128.421L57.7805 128.312ZM60.1268 128.504L60.3591 121.208L63.8573 121.319L63.835 122.019L61.1464 121.933L61.0703 124.322L63.659 124.404L63.6368 125.104L61.0481 125.022L60.9587 127.83L63.6473 127.916L63.625 128.615L60.1268 128.504ZM66.8482 128.626C66.5885 128.639 66.3277 128.628 66.0657 128.594C65.8107 128.566 65.5546 128.515 65.2974 128.441L65.2601 127.672C65.5113 127.76 65.7581 127.825 66.0004 127.866C66.2427 127.908 66.4904 127.923 66.7434 127.91C67.1962 127.889 67.5413 127.778 67.7786 127.58C68.0226 127.381 68.1347 127.079 68.1151 126.673C68.1047 126.46 68.0522 126.272 67.9576 126.11C67.8693 125.94 67.7214 125.781 67.5139 125.63C67.313 125.48 67.0314 125.317 66.6692 125.141C66.2244 124.915 65.8703 124.702 65.6069 124.502C65.3502 124.3 65.1628 124.083 65.0446 123.848C64.9328 123.606 64.8693 123.329 64.8541 123.016C64.8241 122.397 64.9819 121.935 65.3276 121.632C65.6796 121.321 66.2452 121.147 67.0243 121.109C67.2573 121.098 67.4911 121.1 67.7254 121.115C67.9664 121.13 68.2182 121.161 68.4808 121.208L68.584 123.336L67.7849 123.375L67.6968 121.557L68.0338 121.901C67.8521 121.87 67.6809 121.848 67.5201 121.836C67.366 121.823 67.2057 121.821 67.0392 121.829C66.5597 121.852 66.2079 121.959 65.9835 122.151C65.7589 122.335 65.6556 122.614 65.6736 122.987C65.6837 123.193 65.7328 123.381 65.8211 123.55C65.9158 123.712 66.067 123.872 66.2748 124.029C66.489 124.178 66.7739 124.341 67.1295 124.518C67.5673 124.737 67.9147 124.95 68.1718 125.158C68.4285 125.359 68.6161 125.58 68.7346 125.822C68.8527 126.056 68.9196 126.333 68.9351 126.653C68.9654 127.279 68.8051 127.757 68.454 128.088C68.1093 128.412 67.574 128.591 66.8482 128.626ZM71.9648 128.097L71.1167 121.572L69.4408 121.79L69.3479 121.076L73.5129 120.535L73.6057 121.249L71.9298 121.466L72.778 127.992L71.9648 128.097ZM77.5967 127.257C76.9444 127.395 76.428 127.336 76.0475 127.083C75.6722 126.821 75.4118 126.345 75.2661 125.653L74.1636 120.418L74.9464 120.253L76.0325 125.41C76.1355 125.899 76.2978 126.233 76.5192 126.411C76.7407 126.589 77.0504 126.636 77.4484 126.553C77.8528 126.467 78.1172 126.299 78.2415 126.048C78.3723 125.796 78.3861 125.425 78.2831 124.936L77.197 119.779L77.9799 119.614L79.0824 124.849C79.228 125.541 79.1819 126.082 78.944 126.473C78.7047 126.857 78.2556 127.118 77.5967 127.257ZM78.877 119.397C79.1439 119.266 79.3774 119.164 79.5775 119.088C79.7821 119.005 79.98 118.934 80.1712 118.876C80.7514 118.698 81.2392 118.629 81.6347 118.669C82.0282 118.702 82.3534 118.853 82.6102 119.123C82.8651 119.387 83.0715 119.777 83.2293 120.294C83.3872 120.81 83.4352 121.252 83.3732 121.619C83.3093 121.98 83.1245 122.288 82.8187 122.542C82.5109 122.789 82.0669 123.002 81.4868 123.179C81.3146 123.232 81.1437 123.277 80.9741 123.315C80.8108 123.351 80.636 123.383 80.4497 123.412L80.4937 122.667C80.6672 122.642 80.8229 122.615 80.9607 122.587C81.0985 122.559 81.2279 122.526 81.3491 122.489C81.7316 122.372 82.0198 122.232 82.2137 122.068C82.414 121.902 82.532 121.695 82.5677 121.447C82.6035 121.199 82.5668 120.897 82.4577 120.54C82.3466 120.176 82.2079 119.905 82.0415 119.726C81.8733 119.54 81.6598 119.435 81.401 119.409C81.1486 119.382 80.8312 119.427 80.4487 119.544C80.3211 119.583 80.1892 119.63 80.0529 119.686C79.9209 119.733 79.7738 119.799 79.6114 119.883L79.759 119.545L81.7703 126.125L81.0053 126.359L78.877 119.397ZM83.9316 125.464L80.5819 123.058L81.4617 122.789L84.8305 125.189L83.9316 125.464ZM85.5759 124.933L84.5774 117.478L85.4889 117.118L89.8542 123.243L89.0916 123.544L85.3971 118.165L85.3599 118.18L86.3386 124.631L85.5759 124.933ZM85.6968 122.735L85.4396 122.084L88.0066 121.07L88.2638 121.721L85.6968 122.735ZM90.7976 122.811L87.584 116.256L88.7513 115.684L93.105 120.566L93.1409 120.548L90.3675 114.891L91.0858 114.539L94.2994 121.094L93.1321 121.666L88.7785 116.784L88.7426 116.802L91.5159 122.458L90.7976 122.811ZM96.8601 119.621L93.461 113.987L92.0139 114.86L91.642 114.243L95.2382 112.074L95.6101 112.69L94.1631 113.563L97.5622 119.197L96.8601 119.621Z" fill="#F6CF92"/>
</g>
<g filter="url(#filter1_g_44_291)">
<path d="M35.2148 43.6484V19.0215L38.0273 17.791H42.457C44.2969 17.791 45.8555 18.4297 47.1328 19.707C48.4102 20.9844 49.0488 22.4316 49.0488 24.0488C49.0488 25.877 48.4219 27.4297 47.168 28.707L47.0625 28.8125C47.6484 29.1523 48.1992 29.5859 48.7148 30.1133C50.2383 31.6484 51 33.5176 51 35.7207C51 37.9004 50.2324 39.7695 48.6973 41.3281C47.1855 42.875 45.3457 43.6484 43.1777 43.6484H35.2148ZM38.0273 40.8359H43.2305C44.625 40.8359 45.8203 40.332 46.8164 39.3242C47.8125 38.3164 48.3105 37.1152 48.3105 35.7207C48.3105 34.3027 47.8125 33.0957 46.8164 32.0996C45.8203 31.1035 44.625 30.6055 43.2305 30.6055H42.5449H38.0273V40.8359ZM42.4922 27.793C43.6875 27.7812 44.5781 27.4707 45.1641 26.8613C45.8789 26.1113 46.2363 25.2266 46.2363 24.207C46.2363 24.1484 46.2363 24.084 46.2363 24.0137C46.2363 23.1699 45.8613 22.4082 45.1113 21.7285C44.3379 21.002 43.4355 20.627 42.4043 20.6035H38.0273V27.793H42.4922ZM55.3945 44V25.2617C55.3945 23.1055 56.168 21.2656 57.7148 19.7422C59.2617 18.207 61.1309 17.4395 63.3223 17.4395C65.5137 17.4395 67.3828 18.207 68.9297 19.7422C70.4766 21.2656 71.25 23.1055 71.25 25.2617V42.7695L68.4375 44V32.1348H58.207V42.7695L55.3945 44ZM58.207 29.3223H68.4375V25.209C68.4258 23.8027 67.9219 22.6074 66.9258 21.623C65.918 20.627 64.7168 20.1289 63.3223 20.1289C61.916 20.1289 60.709 20.627 59.7012 21.623C58.7051 22.6074 58.207 23.7852 58.207 25.1562V25.209V29.3223ZM75.3633 44V22.2207C75.3633 20.9082 75.832 19.7832 76.7695 18.8457C77.707 17.9082 78.8379 17.4395 80.1621 17.4395C81.5332 17.4395 82.6641 17.8965 83.5547 18.8105C84.4922 17.8965 85.6172 17.4395 86.9297 17.4395C88.3359 17.4395 89.4785 17.8965 90.3574 18.8105C91.248 19.7363 91.6992 20.8789 91.7109 22.2383V42.7695L88.8984 44L88.916 22.3086C88.916 21.7227 88.7227 21.2246 88.3359 20.8145C87.9492 20.4043 87.4922 20.1992 86.9648 20.1992C86.4141 20.1992 85.9453 20.4043 85.5586 20.8145C85.1602 21.2363 84.9609 21.7285 84.9609 22.291V22.3086L84.9434 42.7695L82.1309 44L82.1484 22.3086C82.1484 21.7227 81.9551 21.2246 81.5684 20.8145C81.1816 20.4043 80.7246 20.1992 80.1973 20.1992C79.6582 20.1992 79.1895 20.4043 78.791 20.8145C78.3926 21.2246 78.1934 21.7227 78.1934 22.3086L78.1758 42.7695L75.3633 44Z" fill="#F6CF92"/>
</g>
<g filter="url(#filter2_g_44_291)">
<path d="M43.0898 91.0391C45.375 91.2969 47.2441 92.1289 48.6973 93.5352C50.2441 95.0352 51.0176 96.875 51.0176 99.0547V99.1074C51.0176 101.334 50.2559 103.203 48.7324 104.715C47.1973 106.238 45.3281 107 43.125 107C40.8984 107 39.0293 106.238 37.5176 104.715C35.9707 103.145 35.1973 101.299 35.1973 99.1777V98.9492L38.0098 97.7188V99.2305C38.0098 100.637 38.5137 101.832 39.5215 102.816C40.5293 103.812 41.7305 104.311 43.125 104.311C44.543 104.311 45.75 103.812 46.7461 102.816C47.7422 101.809 48.2402 100.607 48.2402 99.2129C48.2402 97.748 47.7598 96.5586 46.7988 95.6445C45.6973 94.6016 44.4961 94.0332 43.1953 93.9395C40.9688 93.7637 39.2227 93.043 37.957 91.7773C36.6445 90.4766 35.9883 88.9062 35.9883 87.0664C35.9883 85.2148 36.6328 83.6504 37.9219 82.373C39.2109 81.084 40.7695 80.4395 42.5977 80.4395C44.4492 80.4395 46.0137 81.084 47.291 82.373C48.5918 83.6855 49.2422 85.2441 49.2422 87.0488V87.2246L46.4297 88.4902V87.1016C46.4062 86.0117 46.0312 85.1094 45.3047 84.3945C44.543 83.6445 43.6406 83.2695 42.5977 83.2695C41.5547 83.2695 40.6699 83.6328 39.9434 84.3594C39.1934 85.1211 38.8184 86.0234 38.8184 87.0664C38.8184 88.1094 39.1934 89.0059 39.9434 89.7559C40.6465 90.459 41.6953 90.8867 43.0898 91.0391ZM55.3945 107V81.6699L58.207 80.4395V94.0273L67.9277 80.4395L70.5645 81.6699L62.9531 92.3223H63.3223C65.5254 92.3223 67.3945 93.0898 68.9297 94.625C70.4766 96.1602 71.25 98 71.25 100.145V105.77L68.4375 107V100.092C68.4258 98.6855 67.9219 97.4902 66.9258 96.5059C65.918 95.5098 64.7168 95.0117 63.3223 95.0117C61.916 95.0117 60.709 95.5098 59.7012 96.5059C58.7051 97.4902 58.207 98.668 58.207 100.039V100.092V105.77L55.3945 107ZM82.1309 107V98.9492C80.5371 98.6797 79.1367 97.9531 77.9297 96.7695C76.3828 95.2344 75.6094 93.3887 75.6094 91.2324V81.6699L78.4219 80.4395V91.2852C78.4336 92.6914 78.9375 93.8867 79.9336 94.8711C80.9414 95.8672 82.1426 96.3652 83.5371 96.3652C84.9434 96.3652 86.1504 95.8672 87.1582 94.8711C88.1543 93.8867 88.6523 92.709 88.6523 91.3379V91.2852V81.6699L91.4648 80.4395V91.2324C91.4648 93.3887 90.6914 95.2344 89.1445 96.7695C87.9375 97.9531 86.5371 98.6797 84.9434 98.9492V105.77L82.1309 107Z" fill="#F6CF92"/>
</g>
<g filter="url(#filter3_g_44_291)">
<path d="M35.2148 75.6484V51.0215L38.0273 49.791H42.457C44.2969 49.791 45.8555 50.4297 47.1328 51.707C48.4102 52.9844 49.0488 54.4316 49.0488 56.0488C49.0488 57.877 48.4219 59.4297 47.168 60.707L47.0625 60.8125C47.6484 61.1523 48.1992 61.5859 48.7148 62.1133C50.2383 63.6484 51 65.5176 51 67.7207C51 69.9004 50.2324 71.7695 48.6973 73.3281C47.1855 74.875 45.3457 75.6484 43.1777 75.6484H35.2148ZM38.0273 72.8359H43.2305C44.625 72.8359 45.8203 72.332 46.8164 71.3242C47.8125 70.3164 48.3105 69.1152 48.3105 67.7207C48.3105 66.3027 47.8125 65.0957 46.8164 64.0996C45.8203 63.1035 44.625 62.6055 43.2305 62.6055H42.5449H38.0273V72.8359ZM42.4922 59.793C43.6875 59.7812 44.5781 59.4707 45.1641 58.8613C45.8789 58.1113 46.2363 57.2266 46.2363 56.207C46.2363 56.1484 46.2363 56.084 46.2363 56.0137C46.2363 55.1699 45.8613 54.4082 45.1113 53.7285C44.3379 53.002 43.4355 52.627 42.4043 52.6035H38.0273V59.793H42.4922ZM71.25 57.2617C71.25 57.2617 71.25 60.9004 71.25 68.1777C71.25 70.334 70.4766 72.1797 68.9297 73.7148C67.3828 75.2383 65.5137 76 63.3223 76C61.1191 76 59.25 75.2383 57.7148 73.7148C56.168 72.1797 55.3945 70.334 55.3945 68.1777V57.2617C55.3945 55.1055 56.168 53.2656 57.7148 51.7422C59.2617 50.207 61.1309 49.4395 63.3223 49.4395C65.5137 49.4395 67.3828 50.207 68.9297 51.7422C70.4766 53.2656 71.25 55.1055 71.25 57.2617ZM58.207 57.209V68.2305C58.207 69.625 58.7051 70.8203 59.7012 71.8164C60.6973 72.8125 61.9043 73.3105 63.3223 73.3105C64.7168 73.3105 65.918 72.8125 66.9258 71.8164C67.9219 70.832 68.4258 69.6367 68.4375 68.2305V57.209C68.4258 55.8027 67.9219 54.6074 66.9258 53.623C65.918 52.627 64.7168 52.1289 63.3223 52.1289C61.9043 52.1289 60.6973 52.627 59.7012 53.623C58.7051 54.6074 58.207 55.8027 58.207 57.209ZM91.4648 57.2617C91.4648 57.2617 91.4648 60.9004 91.4648 68.1777C91.4648 70.334 90.6914 72.1797 89.1445 73.7148C87.5977 75.2383 85.7285 76 83.5371 76C81.334 76 79.4648 75.2383 77.9297 73.7148C76.3828 72.1797 75.6094 70.334 75.6094 68.1777V57.2617C75.6094 55.1055 76.3828 53.2656 77.9297 51.7422C79.4766 50.207 81.3457 49.4395 83.5371 49.4395C85.7285 49.4395 87.5977 50.207 89.1445 51.7422C90.6914 53.2656 91.4648 55.1055 91.4648 57.2617ZM78.4219 57.209V68.2305C78.4219 69.625 78.9199 70.8203 79.916 71.8164C80.9121 72.8125 82.1191 73.3105 83.5371 73.3105C84.9316 73.3105 86.1328 72.8125 87.1406 71.8164C88.1367 70.832 88.6406 69.6367 88.6523 68.2305V57.209C88.6406 55.8027 88.1367 54.6074 87.1406 53.623C86.1328 52.627 84.9316 52.1289 83.5371 52.1289C82.1191 52.1289 80.9121 52.627 79.916 53.623C78.9199 54.6074 78.4219 55.8027 78.4219 57.209Z" fill="#F6CF92"/>
</g>
<g filter="url(#filter4_g_44_291)">
<path d="M79.9626 63.8C78.7326 65.077 78 68 78 68C78 68 80.6857 67.258 81.7383 65.9C82.6999 64.6595 83 62 83 62C83 62 80.9357 62.7897 79.9626 63.8Z" fill="#F6CF92"/>
<path d="M79.9626 63.8C78.7326 65.077 78 68 78 68C78 68 80.6857 67.258 81.7383 65.9C82.6999 64.6595 83 62 83 62C83 62 80.9357 62.7897 79.9626 63.8Z" stroke="#F6CF92"/>
</g>
<g filter="url(#filter5_g_44_291)">
<path d="M80.5054 68.5382C79.527 68.406 77.9728 69.039 77.9728 69.039C77.9728 69.039 79.1901 70.0012 80.1466 70.027C81.0204 70.0506 82.3137 69.31 82.3137 69.31C82.3137 69.31 81.2796 68.6427 80.5054 68.5382Z" fill="#F6CF92"/>
<path d="M80.5054 68.5382C79.527 68.406 77.9728 69.039 77.9728 69.039C77.9728 69.039 79.1901 70.0012 80.1466 70.027C81.0204 70.0506 82.3137 69.31 82.3137 69.31C82.3137 69.31 81.2796 68.6427 80.5054 68.5382Z" stroke="#F6CF92"/>
</g>
<g filter="url(#filter6_g_44_291)">
<path d="M30.7761 14.6107C30.1534 15.0301 29.535 15.464 28.9216 15.9124C19.6715 22.5724 12.0456 32.7636 8.15442 43.3809C7.64174 44.769 7.59188 44.645 7.44348 45.0341C7.40933 45.126 7.37755 45.2152 7.34783 45.302C7.03362 46.2231 6.94424 46.8617 6.72727 47.5858C5.58288 51.4454 4.89268 55.1693 4.52531 59.1062C4.21755 63.1682 4.04543 61.2342 3.91077 62.6536C3.72963 65.438 4.15981 63.0723 4.24656 64.1637C4.23016 67.3383 4.45081 70.5455 4.92335 73.6973C4.75974 72.9358 4.6115 72.1702 4.47932 71.3927C4.63961 72.7736 4.9016 74.7541 4.44184 72.4612C4.48555 72.977 4.52527 73.4588 4.58502 73.9881C4.7436 74.1099 5.21962 76.5321 5.36622 76.7302C5.49736 76.9315 5.19391 75.5813 5.20678 75.5874C5.27022 75.6683 6.48551 81.2107 6.66118 81.5916C6.69688 81.7217 6.72149 81.8224 6.73747 81.9006C6.8517 82.4507 6.52641 81.8941 6.78462 82.6613C7.31224 84.1642 7.30591 83.036 7.57662 85.2295C8.03347 85.9735 7.97876 86.0725 8.38069 87.0815C8.43422 87.2139 8.47827 87.0755 8.50465 87.1325C9.20931 88.6144 8.55554 87.5237 8.54983 87.5346C8.45464 87.7372 9.23646 89.3244 9.38706 89.6639C11.2314 93.9542 12.9023 97.0021 15.8555 100.981C16.4828 101.853 18.6341 104.307 19.3326 105.072C20.0079 105.84 19.5502 105.517 19.8778 105.945C20.6759 106.374 21.2505 106.942 22.5285 108.396C23.1936 108.734 23.0078 108.798 24.0648 109.677C24.9455 110.411 26.6346 111.475 27.5151 112.39C26.3823 111.5 26.4366 111.674 25.142 110.689C24.6673 110.411 20.5455 106.557 20.7294 106.962C20.8026 107.2 22.2217 108.436 22.2652 108.494C22.4957 108.868 21.6261 108.258 20.9983 107.565C21.18 107.712 21.3969 107.89 21.5929 108.046C20.2034 106.48 20.8259 107.885 20.0602 106.41C19.9671 106.227 20.0643 106.239 19.8876 105.961C19.8227 105.931 20.0483 106.262 19.8049 106.024C19.556 105.781 19.199 105.213 19.0564 105.211C18.8427 105.207 19.87 106.22 19.9417 106.302C19.9432 106.302 19.9446 106.302 19.9461 106.302C20.5531 107.05 19.1587 105.61 19.0884 105.544C18.5992 105.15 18.8294 105.515 18.1469 104.872C17.7557 104.506 16.8915 103.456 16.5648 103.076C16.2369 102.7 16.6742 103.345 16.4491 103.095C16.2237 102.845 16.0032 102.486 15.7448 102.188C15.6341 102.061 15.5766 102.117 15.5239 102.054C14.9609 101.381 15.4438 101.735 14.9543 101.11C14.6348 100.709 13.4979 99.3966 14.1598 100.39C13.8086 99.9358 13.4752 99.4861 13.1409 99.0229C13.3256 99.3331 13.5263 99.6472 13.7082 99.9497C13.1157 99.0516 12.7325 98.724 12.3497 98.1668C11.9683 97.6079 11.7807 97.0107 11.3234 96.4215C10.3429 95.1614 12.4822 98.4597 12.7583 98.8624C12.8552 99.0269 12.3386 98.4936 12.2739 98.4007C11.9826 97.9926 11.7389 97.4448 11.5301 97.121C10.7836 95.9604 10.2492 95.2927 9.58502 94.1521C7.60431 90.7696 5.66511 86.41 4.46545 82.6109C4.28681 82.0551 4.12192 81.5138 3.97004 80.9896C3.52981 79.4613 3.4478 78.4967 3.28463 77.8049C2.91607 76.1811 2.76399 76.0025 2.5023 74.5699C2.11017 72.4362 1.88754 69.3871 1.82028 67.584C1.76241 66.3363 1.62777 65.2071 1.62077 64.8811C1.47686 60.3528 2.10007 54.8493 2.90402 51.1845C3.26985 49.4569 3.61813 48.6806 3.70282 48.3274C4.09034 46.8132 3.87475 47.1871 4.24391 45.9724C4.44899 45.3171 4.59161 45.2285 4.6227 45.1421C4.72843 44.8535 4.7836 44.6469 4.82144 44.4682C4.88326 44.1776 4.89866 43.9606 5.02344 43.5906C6.1874 40.154 7.70045 36.9875 9.44365 33.8557C9.57064 33.6285 9.61324 33.6787 9.69271 33.5303C10.0356 32.8935 9.78427 33.1371 10.1584 32.479C10.941 31.1124 11.8232 29.7548 12.7859 28.3915C12.8815 28.2566 12.9881 28.2405 13.2065 27.9324C13.4258 27.6245 13.532 27.3471 13.8889 26.8714C14.8233 25.6295 15.8489 24.4875 16.9265 23.2492C17.1048 23.0444 17.2551 22.7278 17.5282 22.4242C18.3807 21.4668 19.7595 20.1625 20.55 19.4048C22.7639 17.2621 24.9521 15.3817 27.2822 13.665C27.6864 13.3676 28.094 13.0761 28.5079 12.7892C29.1663 12.3326 29.8076 12.016 30.1576 11.7918C30.9493 11.289 30.307 11.5981 31.1125 11.0919C37.713 6.9838 45.1267 4.14792 52.8587 2.73745C55.8915 2.16866 59.6358 1.71101 62.6249 1.683C62.9762 1.67818 63.2465 1.68618 63.4731 1.69894C64.0474 1.73231 64.34 1.79214 64.9685 1.80171C66.5305 1.83672 66.8212 1.69954 68.4724 1.79375C69.7908 1.87557 71.2789 2.17952 72.6354 2.36183C73.9918 2.54865 74.6408 2.50801 76.1937 2.79334C77.4727 3.02979 79.2249 3.50782 80.5892 3.87774C87.5321 5.7371 94.0994 8.79855 99.9578 12.9138C104.663 16.2174 108.91 20.1999 112.526 24.7507C115.399 28.345 118.182 32.6731 120.103 37.0206C120.281 37.4291 119.871 36.8702 120.498 38.1516C120.829 38.8422 121.382 39.7705 122.034 41.4228C122.301 42.1019 122.556 42.7891 122.798 43.4846C126.102 52.8496 126.886 63.5399 125.389 73.3817C124.984 76.1225 124.418 78.8587 123.677 81.5531C120.253 94.4689 112.11 106.298 102.283 112.415C101.705 112.779 101.783 112.278 102.038 111.951C102.375 111.774 102.697 111.621 103.052 111.432C103.155 110.78 103.17 110.94 104.571 109.764C105.426 109.032 104.634 109.494 105.042 109.054C105.594 108.502 108.004 105.785 107.713 106.475C107.834 106.278 107.944 106.095 108.06 105.903C109.839 103.968 111.421 101.959 112.87 99.845C113.12 99.4791 113.059 99.41 113.312 99.0303C113.988 98.0082 114.578 97.233 115.243 96.1592C115.602 95.5742 115.565 95.44 116.028 94.6726C116.485 93.9023 116.602 93.989 117.058 92.8431C116.533 93.4631 118.315 90.3928 118.805 89.2255C118.884 89.059 119.352 87.6251 119.667 86.8943C119.988 86.1629 120.525 85.0662 120.879 83.8777C121.044 83.3204 121.039 82.9484 121.224 82.3521C121.349 81.9485 121.595 81.4975 121.757 80.9882C121.763 80.968 121.769 80.9477 121.775 80.9273C121.94 80.3944 122.167 79.2086 122.217 78.9946C122.408 78.2223 122.267 79.0922 122.403 78.565C123.064 76.0201 123.638 73.0069 123.856 70.4212C123.883 70.1036 123.746 70.5325 123.748 70.49C123.852 68.33 123.852 69.4884 123.986 68.9135C124.15 68.3581 124.255 64.2092 124.065 64.1803C124.265 64.0537 124.108 63.133 124.096 62.8951C124.053 61.9669 124.229 62.1433 124.139 61.2436C124.104 60.914 124.018 61.5625 124.005 61.2075C123.972 60.3313 124.108 59.5291 124.018 58.3589C123.996 58.0766 123.906 57.993 123.855 57.4931C123.814 56.9918 123.626 54.8869 123.586 55.8754C123.545 54.5901 123.432 54.3442 123.168 52.8806C123.1 52.5106 123.139 52.0069 122.929 51.2296C122.858 50.967 122.735 51.0023 122.643 50.6049C122.432 49.6967 122.35 48.81 122.034 47.665C121.714 46.5077 121.318 45.3285 120.888 44.1511C120.522 43.1517 120.132 42.155 119.744 41.1669C119.512 40.5834 119.694 40.6764 119.333 39.8349C119.281 39.7102 118.73 38.7494 118.467 38.1754C118.318 37.8261 117.502 36.0279 117.313 35.677C117.012 35.0912 116.844 35.0491 116.692 34.7224C116.243 33.7813 116.817 34.4128 115.971 33.4549C115.883 33.0283 115.49 32.4086 115.511 32.1185C115.126 31.8542 114.985 31.288 114.475 30.6294C113.964 29.9705 113.277 29.6253 113.482 29.2362C113.225 28.9424 112.185 27.6625 112.008 27.4491C111.497 26.8101 111.85 27.0903 111.457 26.6122C111.387 26.5286 111.402 26.662 110.971 26.1133C110.706 25.7376 108.508 23.2005 108.363 23.0613C106.885 21.3102 109.272 23.9193 109.641 24.2568C109.682 24.3366 109.723 24.4159 109.768 24.5001C110.399 25.2918 110.154 24.7453 109.883 24.3709C109.612 23.9958 108.985 23.4034 108.766 23.0851C108.657 22.9262 108.887 22.876 109.256 23.3223C108.887 22.821 109.503 23.4056 109.382 23.1847C109.261 22.9304 107.348 20.8923 107.249 20.9704C107.615 21.3422 108.068 21.8052 108.425 22.1923C108.75 22.8233 106.873 21.7484 105.68 20.2605C104.8 19.1824 106.588 20.6021 104.054 18.5253C104.426 18.8636 104.73 19.1623 105.06 19.4777C104.999 19.6163 104.56 18.9988 104.243 18.7798C104.092 18.6743 104.865 19.5031 104.112 18.8753C103.617 18.1631 102.992 17.8891 101.896 17.0031C102.224 17.2209 102.551 17.4422 102.876 17.6669C101.128 16.022 105.447 19.5392 101.902 16.5049C102.345 16.8505 102.776 17.2062 103.214 17.5631C103.053 17.3285 103.532 17.4421 103.374 17.2476C102.959 16.7357 102.169 16.1876 101.552 15.6961C101.282 15.4809 101.488 15.5647 101.465 15.5467C101.094 15.2523 101.124 15.3859 100.789 15.1401C100.46 14.8968 99.6718 14.2564 99.2401 13.9336C99.1214 13.844 99.0307 13.778 98.9861 13.7495C98.5384 13.4645 99.0044 13.9387 99.1317 14.0875C99.1566 14.1163 99.1689 14.1328 99.1596 14.1288C99.1455 14.1227 99.1312 14.1162 99.1165 14.1091C98.7368 13.9261 98.1434 13.4491 98.1182 13.5605C98.3782 13.7221 98.7087 13.9396 99.0633 14.1847C100.999 15.5185 103.58 17.6985 100.052 15.1759C101.074 16.1692 100.609 16.0966 98.9641 14.9322C98.855 14.8561 98.7604 14.7898 98.6782 14.7318C97.7255 14.0668 98.4759 14.4758 97.8701 13.9416C97.7903 13.8589 95.9336 12.5957 95.7905 12.6089C95.9605 12.5069 95.4159 11.9904 95.9309 12.0939C96.0075 12.1077 96.7879 12.6103 96.5912 12.3148C96.4936 12.1661 96.1807 11.7847 96.2933 11.7452C96.0956 11.6991 95.8863 11.6564 95.6848 11.6135C94.4769 10.9116 94.3358 10.7615 93.726 10.2815C93.7326 10.3431 94.2468 10.8689 93.3403 10.2951C93.2937 10.2657 93.2897 10.1747 92.8263 9.88427C91.8875 9.30298 91.6872 9.18019 92.5455 9.37172C90.4476 8.44086 90.1069 8.00332 87.9126 7.13803C88.2306 7.5889 89.0246 7.82228 90.986 8.7092C91.0399 8.8115 91.0495 8.89141 91.1051 8.99566C88.597 7.62418 89.8594 8.24378 88.3277 7.71169C87.955 7.57665 86.0122 6.75702 86.5936 7.19881C86.7321 7.29875 87.9402 7.79385 87.7733 7.80382C87.7429 7.80052 86.2627 7.23449 86.1373 7.17154C84.5716 6.35001 87.5969 7.23384 82.9846 5.72176C82.8567 5.68279 82.7864 5.7475 82.5344 5.6794C82.0602 5.55247 82.0828 5.4585 81.6566 5.35261C81.2295 5.24728 80.612 5.20284 80.0079 4.91469C78.8967 4.38871 81.691 5.00236 82.8619 5.52242C83.488 5.27423 74.6407 3.0097 74.0438 3.1104C71.5917 2.82756 75.654 3.41378 75.8406 3.56104C75.9205 3.61249 75.7944 4.01462 76.8612 3.95722C77.1786 3.94006 75.9462 3.57137 76.7044 3.68375C77.4634 3.7997 77.1394 3.85976 77.1919 3.87961C77.3715 3.94816 78.1747 4.08529 78.2732 4.12842C79.7813 4.78153 79.5443 5.12504 77.5967 4.04834C76.6567 3.97466 78.6945 4.66257 77.5456 4.49358C76.1536 4.2919 75.1831 3.92208 75.0099 3.8805C72.9391 3.41832 75.302 4.09144 72.7632 3.60245C71.3435 3.351 74.9281 3.7145 71.6622 3.28146C68.9204 2.98076 70.3905 3.25515 70.1684 3.45207C70.1158 3.49981 68.6171 3.4133 70.6519 3.59758C70.7156 3.54581 70.8326 3.48131 70.9681 3.44266C71.4642 3.54112 72.2542 3.94094 72.5142 3.9894C73.7893 4.22537 73.7518 4.07281 74.4751 4.37725C73.9707 4.09105 74.8266 4.35839 75.1615 4.38084C76.4057 4.47293 74.831 4.07457 77.5105 4.85536C77.1774 4.68528 76.8755 4.527 76.5491 4.36492C76.8779 4.43089 77.2063 4.49955 77.5339 4.57092C77.979 4.87432 79.7029 5.27778 78.0966 5.09192C79.9561 5.60258 80.7086 5.79609 81.1607 5.76105C81.2463 5.75501 81.5284 5.82576 81.8556 5.92341C81.8069 5.86221 81.7675 5.70751 81.824 5.70727C82.3304 5.70682 82.9653 6.18081 82.6924 6.19444C82.9182 6.27232 83.0959 6.33706 83.1584 6.36033C83.5547 6.50814 82.7409 6.33022 83.0565 6.46656C83.1613 6.50838 84.2918 6.87777 84.3006 6.92167C84.3534 7.1967 82.5915 6.33835 86.2083 7.84794C86.3758 7.68385 84.6534 7.07908 85.1684 7.03829C85.7268 6.98964 86.5701 7.66379 86.8866 7.47957C86.9463 7.55547 86.9655 7.60647 87.0117 7.68424C88.5359 8.17822 88.4537 8.42419 88.8761 8.66824C89.705 9.12423 93.5873 11.0628 90.1869 9.14186C90.7114 9.3689 91.2383 9.61886 91.7528 9.86182C91.6644 10.3172 91.4594 9.96492 93.8111 11.3445C94.3257 11.6541 94.3964 11.9168 95.018 12.0216C94.838 12.1675 96.4167 12.9785 96.5387 13.0967C97.3387 13.8004 93.8892 11.94 93.6268 11.3793C92.9722 11.1892 93.0737 11.0126 92.4063 10.685C91.4395 10.2197 91.2931 10.1859 90.2134 9.49402C89.0128 9.1094 94.5326 11.7992 91.0973 10.3453C88.2133 8.43485 70.6369 3.44605 63.4956 4.35702C62.7923 4.36871 62.2012 4.39079 61.7457 4.41181C52.707 5.01213 47.9929 6.29221 40.4734 9.32941C39.7 9.56968 34.3293 12.362 35.3359 11.583C35.4716 11.4581 37.7543 10.1625 35.6719 11.0384C36.1281 10.9214 34.9987 11.6126 34.9099 11.6799C32.8469 13.1871 34.1134 12.4421 30.7761 14.6107ZM20.1577 20.5874C24.0611 16.8824 21.1057 19.5119 21.6624 18.4672C21.1518 18.9406 20.6512 19.4207 20.1568 19.9107C20.3027 19.7982 20.4474 19.688 20.5942 19.5768C20.5947 19.5763 20.5953 19.5757 20.5959 19.5752C20.4467 19.9117 20.2998 20.25 20.1577 20.5874ZM14.5242 101.275C14.3586 101.136 14.195 100.997 14.0209 100.841C13.6084 100.256 13.2075 99.6667 12.8157 99.0682C12.8911 99.12 12.9652 99.169 13.0407 99.2204C13.5198 99.916 14.0115 100.6 14.5242 101.275ZM83.591 5.70639C84.496 6.15838 84.4925 5.89687 85.7054 6.4643C85.6152 6.24064 85.505 6.01437 85.4027 5.78961C84.4315 5.46477 84.1911 5.45138 83.1497 5.06303C83.2551 5.15722 83.3628 5.25296 83.4643 5.34711C83.6432 5.39358 83.8337 5.44309 84.0063 5.49068C84.2234 5.73006 82.5421 5.19466 83.5875 5.70563C83.5887 5.70588 83.5898 5.70614 83.591 5.70639ZM93.0542 9.71742C93.5257 9.98397 95.3389 11.1197 95.622 11.2145C96.6195 11.4826 91.2726 8.62563 95.2657 10.6401C95.2657 10.5996 95.3007 10.5804 95.3182 10.5505C94.6195 10.1269 93.9135 9.71964 93.1918 9.3232C93.1658 9.46557 93.0758 9.57181 93.0542 9.71742ZM35.7873 9.11159C36.5189 8.71656 40.0904 6.97455 38.8467 7.36396C38.4747 7.47173 36.9592 8.42776 36.3568 8.72637C35.964 8.9174 36.3442 8.58382 35.5966 9.01788C35.6555 9.04887 35.7042 9.0918 35.7892 9.11019C35.7886 9.11066 35.788 9.11112 35.7873 9.11159ZM34.7536 10.4746C35.4893 10.0474 36.2423 9.62467 37.0011 9.22462C36.3751 9.37176 35.3236 10.0241 35.1673 9.88517C35.3681 9.76112 35.5674 9.63953 35.7697 9.51776C35.9498 9.4733 36.1275 9.43098 36.3052 9.38953C36.917 8.96337 36.4894 9.1069 37.7445 8.5391C36.8689 8.63211 36.6318 8.53257 34.6864 9.91366C35.0049 9.56003 34.3725 9.28382 33.4087 10.2643C33.2291 10.4462 34.1472 9.98226 34.1636 9.98829C34.3686 10.0338 33.915 10.3872 34.1268 10.42C34.2216 10.4344 34.7664 10.134 34.8877 10.1632C34.9441 10.178 34.4816 10.5614 34.7536 10.4746ZM32.9215 10.6982C33.1101 10.4912 32.2185 10.775 31.5632 11.2272C30.5464 11.9322 32.2993 11.0627 32.9215 10.6982ZM14.5272 101.278C14.5262 101.277 14.5252 101.276 14.5242 101.275C14.5248 101.275 14.5254 101.276 14.5261 101.276C14.5264 101.277 14.5268 101.278 14.5272 101.278ZM90.6108 8.37055C91.2182 8.57926 92.0567 9.01598 92.046 8.8834C92.3131 9.04445 92.5818 9.2086 92.8461 9.37346C92.8595 9.34179 92.8703 9.30868 92.8836 9.27731C92.0657 8.82147 91.2391 8.38494 90.4006 7.96588C90.4678 8.0989 90.5264 8.22852 90.6108 8.37055ZM99.3335 13.5573C99.3747 13.5868 99.4128 13.6137 99.4479 13.6383C100.224 14.1856 99.5828 13.5527 99.8251 13.6369C100.081 13.7235 100.89 14.3921 100.854 14.2337C100.463 13.9403 100.057 13.6434 99.6489 13.3527C99.478 13.231 99.3069 13.1105 99.1368 12.9919C99.2229 13.1932 99.2608 13.3645 99.3355 13.5586C99.3348 13.5582 99.3342 13.5577 99.3335 13.5573ZM7.66381 38.5419C8.02795 37.8309 7.98713 38.1729 8.54944 36.6968C8.54892 36.6979 8.54841 36.6989 8.54789 36.7C7.79643 37.9988 6.92692 39.735 6.41032 41.3124C6.89938 40.4174 7.10086 39.6662 7.66381 38.5419ZM81.0378 4.54637C80.6898 4.54157 82.1701 5.0556 82.5239 5.08155C83.1019 5.11447 81.573 4.54505 81.0378 4.54637ZM3.29429 69.8899C3.70892 71.0462 3.75915 68.7765 3.53097 66.433C3.507 66.2294 3.49062 67.7553 3.41186 67.3078C3.40251 67.2625 3.36944 66.4257 3.32342 66.22C3.2759 66.0141 3.18977 66.2354 3.1395 65.8961C3.04823 65.2994 3.163 63.9465 3.08055 63.4987C3.0678 63.4392 2.94064 64.2785 2.93766 64.3318C2.86579 65.1965 3.05769 66.0243 3.06371 66.1566C3.09512 66.8412 2.96525 66.7435 2.94275 66.9187C2.90105 67.249 2.99213 67.8222 2.99097 67.8628C2.94441 68.9121 2.82807 66.5286 2.78225 66.2072C2.63455 65.3419 2.52082 66.153 2.43178 64.06C2.42327 63.8622 2.44627 61.4772 2.29117 64.4817C2.0444 58.5641 2.06964 67.4628 2.34296 68.4151C2.40564 68.8561 2.47862 68.1765 2.55282 68.4411C2.71967 69.0444 2.84075 70.0805 3.00886 69.9702C3.35742 69.735 2.99283 68.4014 3.00628 67.4576C3.09263 67.5513 3.17338 67.5844 3.26347 67.7611C3.13165 67.4874 3.2533 69.8063 3.29356 69.89C3.29381 69.8899 3.29405 69.8899 3.29429 69.8899ZM3.23258 55.097C3.54187 53.8104 3.29652 53.8636 3.64485 52.6969C3.63535 51.6081 3.25943 53.6826 3.21617 53.9249C2.98557 55.0239 2.76167 54.9666 2.67923 56.1185C2.86447 55.7433 3.04441 55.4434 3.23258 55.097ZM2.53987 66.5488C2.38564 65.6692 2.45146 67.2522 2.43665 67.3177C2.20982 68.0315 2.09921 63.2767 2.53987 66.5488ZM40.6562 7.38179C41.0731 7.2196 40.767 7.22131 41.1208 7.04206C41.4744 6.85863 42.7745 6.46997 42.719 6.41806C42.662 6.35752 40.2692 7.07716 42.5925 6.15012C42.4991 6.14218 42.5156 6.10438 42.4646 6.08488C41.8186 6.32395 41.1703 6.57556 40.5327 6.83622C40.9261 6.79874 41.3297 6.76756 41.7068 6.73982C41.3817 6.96453 41.1384 6.9367 41.1192 6.94424C41.1193 6.94435 41.1193 6.94447 41.1193 6.94458C40.4559 7.22011 39.7225 7.75275 40.6562 7.38179ZM13.3275 28.9745C13.4847 29.2466 13.8281 28.1962 14.0585 27.8227C14.2852 27.4484 14.7288 27.0318 14.4958 27.1388C14.0014 27.6522 13.3065 28.9438 13.3278 28.9747C13.3277 28.9747 13.3276 28.9746 13.3275 28.9745ZM4.68287 48.0788C4.90887 46.9942 4.78607 47.1395 5.25976 45.8669C5.1784 45.8967 5.0956 45.9263 5.01526 45.9568C4.70318 46.9913 4.91428 46.9722 4.50999 48.1533C4.44547 48.3478 4.39964 47.8822 4.21826 48.7904C4.36725 48.5508 4.52776 48.3113 4.68287 48.0788ZM6.09874 42.7653C5.67487 43.972 5.8711 45.0993 6.41741 42.8165C6.50173 42.4796 6.4251 41.8632 6.09874 42.7653ZM30.3506 12.8478C32.1685 11.6922 30.0604 12.9368 29.5509 13.1899C33.7261 10.3876 29.0755 13.4921 28.5205 13.5837C28.2458 13.8356 27.8407 14.2348 27.7902 14.3613C27.7783 14.3908 27.7855 14.4053 27.8181 14.3996C27.8789 14.3891 28.0276 14.3076 28.3061 14.1241C28.7515 13.8319 28.5446 13.8759 28.5707 13.8575C29.3874 13.3121 29.366 13.4917 30.3506 12.8478ZM2.95623 57.3734C2.96096 57.2918 2.85106 57.4084 2.8606 57.1482C2.86974 56.8873 3.00826 56.3112 2.95754 56.2461C2.90384 56.1802 2.71677 57.3495 2.72627 57.7152C2.734 58.0804 2.9155 58.1096 2.95623 57.3734ZM4.63423 49.2734C4.82909 48.212 4.05527 49.8354 4.00865 50.0694C3.57057 52.0892 4.52776 49.1797 4.63423 49.2734ZM26.6589 16.2397C28.5951 14.5377 26.9005 15.4038 25.5107 16.282C25.3672 16.4467 25.2206 16.6155 25.0812 16.7793C25.694 15.9894 26.8703 14.7056 24.0567 17.3017C25.6907 15.998 24.3896 17.1705 24.3892 17.1894C24.4795 17.6489 26.7435 15.5624 26.6571 16.2411C26.6577 16.2406 26.6583 16.2402 26.6589 16.2397ZM2.57604 60.8671C2.49934 62.0023 2.56637 64.9509 2.75804 63.5774C2.6775 62.6763 2.61666 61.7747 2.57604 60.8671ZM65.8669 3.37875C66.7782 3.51396 67.6174 3.55307 68.7411 3.6331C67.7406 3.40414 68.4063 3.43445 68.7518 3.42346C69.2755 3.40698 68.017 3.31502 68.0142 3.30736C68.0462 3.16554 68.8544 3.18392 67.0199 3.08368C67.4762 3.05518 67.927 3.03099 68.3847 3.01302C66.9851 2.91116 66.6597 2.8087 65.7702 2.66199C66.6273 2.97692 65.4922 2.75107 64.4575 2.88702C63.9436 2.95361 65.4063 3.30507 65.8703 3.37886C65.8692 3.37882 65.868 3.37879 65.8669 3.37875ZM28.8212 14.6958C29.0066 14.5004 29.1642 14.3043 29.3416 14.1095C29.5681 13.9453 29.7964 13.7831 30.025 13.6222C30.0791 13.6406 30.1295 13.6639 30.1873 13.6778C30.5002 13.4841 30.3461 13.5114 30.4338 13.4457C30.434 13.4459 30.4341 13.4461 30.4342 13.4463C31.6976 12.5139 32.2575 12.1861 33.3852 11.6831C33.3148 11.5629 33.2445 11.4426 33.1741 11.3224C32.9409 11.4742 32.7066 11.6285 32.4756 11.7831C32.388 11.9235 32.3006 12.0644 32.2144 12.2051C31.9201 12.3373 31.6293 12.4706 31.3364 12.6078C31.1338 12.7683 30.8902 12.9594 30.7188 13.103C29.4322 13.4773 32.0187 12.1111 31.9635 11.9736C31.9164 11.862 29.4448 13.4655 29.1492 13.7817C29.1059 13.8254 29.7899 13.7 28.8249 14.1911C28.6974 14.2573 28.3774 13.919 27.8873 14.4944C27.8019 14.5951 27.7119 14.7237 27.6181 14.8873C27.5595 14.9896 27.8364 15.0109 28.2017 14.9255C28.3952 14.8803 28.6136 14.8053 28.8212 14.6958ZM38.0104 9.51577C36.3474 9.8279 42.0324 7.72884 39.5155 8.48705C40.1248 8.01991 40.0011 8.07468 39.2437 8.2293C39.1767 8.24252 39.6342 7.98579 39.5913 7.99799C38.9059 8.19656 38.152 8.60024 38.0775 8.45439C37.9074 8.54343 37.7476 8.62751 37.5784 8.71807C38.3656 8.51564 37.2627 9.15158 36.8864 9.48837C36.7139 9.64016 37.1791 9.4295 37.0347 9.55886C36.9808 9.60544 36.328 9.8924 36.327 9.95487C36.3294 10.092 36.8008 10.0324 37.5162 9.783C37.5163 9.78311 37.5163 9.78322 37.5164 9.78333C37.6825 9.69323 37.8436 9.60466 38.0104 9.51577ZM12.182 32.3892C11.8502 32.5125 11.2018 33.4407 12.2439 31.5403C12.15 31.6078 12.0548 31.6786 11.9611 31.7469C11.7716 32.0599 11.5909 32.3647 11.4037 32.6858C11.3913 33.9674 9.78665 35.3826 10.8149 34.4709C10.9268 34.3712 11.3009 33.5939 11.0033 34.4016C11.004 34.4007 11.0046 34.3997 11.0053 34.3988C11.5512 33.3455 11.5629 33.1759 12.182 32.3892ZM16.6268 25.8039C17.9821 23.3584 14.0744 28.6382 14.8702 27.8605C14.9239 27.7791 16.5753 25.4868 16.6268 25.8039ZM6.56289 45.1625C6.57529 45.1255 6.58711 45.0896 6.59837 45.0546C6.94296 43.9968 6.74972 43.8518 6.62551 43.9352C6.50143 44.019 6.32196 44.8052 6.26901 44.9459C6.26723 44.9505 6.26557 44.9544 6.26405 44.9576C6.18439 45.1229 6.19878 45.0154 6.20522 44.9249C6.21064 44.849 6.21042 44.7851 6.1437 44.9046C6.13348 44.9229 6.1217 44.9456 6.10817 44.9732C6.0311 45.1096 5.31647 47.1363 5.30857 47.237C5.21729 47.7789 5.63535 47.0681 5.61557 47.2252C5.54953 47.7337 5.26686 48.3695 5.33674 48.5404C5.48266 48.9057 5.57453 47.6058 5.63399 47.3959C5.80368 46.7646 5.91598 46.8572 6.08215 46.3974C6.24981 45.9383 6.30259 45.6214 6.44491 45.2145C6.49244 45.0793 6.54279 45.2212 6.56289 45.1625ZM7.45547 41.1706C7.15009 42.43 8.51812 39.6181 8.64573 39.2735C8.96886 38.2221 7.58793 40.5554 7.45547 41.1706ZM34.0868 10.871C33.1319 11.5676 35.5674 10.3217 36.2437 9.9315C36.0873 9.94013 34.4139 10.6236 34.0868 10.871ZM26.0992 16.6817C26.9166 15.979 25.5983 16.6167 24.909 17.2037C24.636 17.7007 24.9888 17.3474 25.449 16.9807C25.9096 16.6164 25.4671 17.2348 26.0992 16.6817ZM3.61476 58.0783C3.61489 57.8475 3.93942 54.1067 3.58584 56.2351C3.54555 56.3964 3.30299 59.0159 3.33312 59.2179C3.36569 59.622 3.54522 58.6724 3.61476 58.0783ZM22.4227 20.2935C22.7111 19.7746 23.1269 19.3963 22.601 19.6001C22.6004 19.6007 22.5999 19.6012 22.5993 19.6017C23.6167 18.5743 23.9558 18.8599 24.1796 18.6471C24.9751 17.9125 24.0011 18.3567 24.4528 17.8357C23.3147 18.9476 23.5235 18.4953 22.6204 19.3022C22.4167 19.4832 21.7142 20.3204 21.6557 20.4867C21.5955 20.6511 22.15 20.4291 22.4227 20.2935ZM3.37266 63.3573C3.45613 62.0985 3.21778 60.9279 3.11888 62.6844C3.07894 63.5431 3.32692 64.128 3.37266 63.3573ZM94.1682 11.4902C94.0388 11.3292 93.9033 11.1659 93.7587 10.9992C94.1749 11.2121 94.5889 11.4294 95.0008 11.6518C94.6706 11.4839 94.339 11.3187 94.0042 11.1556C94.7524 11.6134 95.0254 11.9352 94.1702 11.4914C94.1695 11.491 94.1689 11.4906 94.1682 11.4902ZM116.021 33.1084C116.159 33.4796 116.735 34.0349 116.702 33.9422C116.451 33.2359 115.828 32.5911 116.021 33.1084ZM35.9312 10.6426C37.2296 10.0064 36.1786 10.1313 35.3781 10.5305C35.8916 10.336 35.1972 11.0115 35.9312 10.6426ZM109.641 24.2568C109.579 24.1379 109.516 24.0184 109.443 23.8879C109.714 24.262 109.743 24.342 109.641 24.2568ZM3.99597 57.5208C4.04177 57.3031 4.26789 55.6858 4.27062 55.4631C4.26388 54.9981 3.88029 56.2349 3.85839 56.9918C3.85438 57.0757 3.94425 57.7367 3.99634 57.5174C3.99622 57.5185 3.99609 57.5197 3.99597 57.5208ZM95.7824 12.6155C95.7821 12.6112 95.785 12.6091 95.7905 12.6089C95.7874 12.6108 95.786 12.6139 95.7824 12.6155ZM124.048 64.1928C124.054 64.1839 124.06 64.1792 124.065 64.1803C124.06 64.1837 124.054 64.1905 124.048 64.1928ZM6.61318 46.3384C7.10104 45.9245 7.31504 44.6876 6.84581 45.5696C6.81951 45.6193 6.65155 46.213 6.61318 46.3384Z" fill="#F6CF92"/>
</g>
<defs>
<filter id="filter0_g_44_291" x="29.2445" y="111.843" width="70.2948" height="17.7615" filterUnits="userSpaceOnUse" color-interpolation-filters="sRGB">
<feFlood flood-opacity="0" result="BackgroundImageFix"/>
<feBlend mode="normal" in="SourceGraphic" in2="BackgroundImageFix" result="shape"/>
<feTurbulence type="fractalNoise" baseFrequency="0.20876826345920563 0.20876826345920563" numOctaves="3" seed="1117" />
<feDisplacementMap in="shape" scale="1.059999942779541" xChannelSelector="R" yChannelSelector="G" result="displacedImage" width="100%" height="100%" />
<feMerge result="effect1_texture_44_291">
<feMergeNode in="displacedImage"/>
</feMerge>
</filter>
<filter id="filter1_g_44_291" x="34.6848" y="16.9095" width="57.5561" height="27.6205" filterUnits="userSpaceOnUse" color-interpolation-filters="sRGB">
<feFlood flood-opacity="0" result="BackgroundImageFix"/>
<feBlend mode="normal" in="SourceGraphic" in2="BackgroundImageFix" result="shape"/>
<feTurbulence type="fractalNoise" baseFrequency="0.20876826345920563 0.20876826345920563" numOctaves="3" seed="1117" />
<feDisplacementMap in="shape" scale="1.059999942779541" xChannelSelector="R" yChannelSelector="G" result="displacedImage" width="100%" height="100%" />
<feMerge result="effect1_texture_44_291">
<feMergeNode in="displacedImage"/>
</feMerge>
</filter>
<filter id="filter2_g_44_291" x="34.6673" y="79.9095" width="57.3276" height="27.6205" filterUnits="userSpaceOnUse" color-interpolation-filters="sRGB">
<feFlood flood-opacity="0" result="BackgroundImageFix"/>
<feBlend mode="normal" in="SourceGraphic" in2="BackgroundImageFix" result="shape"/>
<feTurbulence type="fractalNoise" baseFrequency="0.20876826345920563 0.20876826345920563" numOctaves="3" seed="1117" />
<feDisplacementMap in="shape" scale="1.059999942779541" xChannelSelector="R" yChannelSelector="G" result="displacedImage" width="100%" height="100%" />
<feMerge result="effect1_texture_44_291">
<feMergeNode in="displacedImage"/>
</feMerge>
</filter>
<filter id="filter3_g_44_291" x="34.6848" y="48.9095" width="57.31" height="27.6205" filterUnits="userSpaceOnUse" color-interpolation-filters="sRGB">
<feFlood flood-opacity="0" result="BackgroundImageFix"/>
<feBlend mode="normal" in="SourceGraphic" in2="BackgroundImageFix" result="shape"/>
<feTurbulence type="fractalNoise" baseFrequency="0.20876826345920563 0.20876826345920563" numOctaves="3" seed="1117" />
<feDisplacementMap in="shape" scale="1.059999942779541" xChannelSelector="R" yChannelSelector="G" result="displacedImage" width="100%" height="100%" />
<feMerge result="effect1_texture_44_291">
<feMergeNode in="displacedImage"/>
</feMerge>
</filter>
<filter id="filter4_g_44_291" x="76.7765" y="60.7094" width="7.34247" height="8.53095" filterUnits="userSpaceOnUse" color-interpolation-filters="sRGB">
<feFlood flood-opacity="0" result="BackgroundImageFix"/>
<feBlend mode="normal" in="SourceGraphic" in2="BackgroundImageFix" result="shape"/>
<feTurbulence type="fractalNoise" baseFrequency="0.20876826345920563 0.20876826345920563" numOctaves="3" seed="1117" />
<feDisplacementMap in="shape" scale="1.059999942779541" xChannelSelector="R" yChannelSelector="G" result="displacedImage" width="100%" height="100%" />
<feMerge result="effect1_texture_44_291">
<feMergeNode in="displacedImage"/>
</feMerge>
</filter>
<filter id="filter5_g_44_291" x="76.4599" y="67.4901" width="7.34546" height="3.56739" filterUnits="userSpaceOnUse" color-interpolation-filters="sRGB">
<feFlood flood-opacity="0" result="BackgroundImageFix"/>
<feBlend mode="normal" in="SourceGraphic" in2="BackgroundImageFix" result="shape"/>
<feTurbulence type="fractalNoise" baseFrequency="0.20876826345920563 0.20876826345920563" numOctaves="3" seed="1117" />
<feDisplacementMap in="shape" scale="1.059999942779541" xChannelSelector="R" yChannelSelector="G" result="displacedImage" width="100%" height="100%" />
<feMerge result="effect1_texture_44_291">
<feMergeNode in="displacedImage"/>
</feMerge>
</filter>
<filter id="filter6_g_44_291" x="1.07004" y="1.15158" width="125.578" height="111.921" filterUnits="userSpaceOnUse" color-interpolation-filters="sRGB">
<feFlood flood-opacity="0" result="BackgroundImageFix"/>
<feBlend mode="normal" in="SourceGraphic" in2="BackgroundImageFix" result="shape"/>
<feTurbulence type="fractalNoise" baseFrequency="0.20876826345920563 0.20876826345920563" numOctaves="3" seed="1117" />
<feDisplacementMap in="shape" scale="1.059999942779541" xChannelSelector="R" yChannelSelector="G" result="displacedImage" width="100%" height="100%" />
<feMerge result="effect1_texture_44_291">
<feMergeNode in="displacedImage"/>
</feMerge>
</filter>
</defs>
</svg>
