<svg width="160" height="160" viewBox="0 0 160 160" fill="none" xmlns="http://www.w3.org/2000/svg">
<rect width="160" height="160" fill="#BFD4EF"/>
<path d="M44.7591 35.24H52.9131C54.2691 35.24 55.5231 35.426 56.6751 35.798C57.8391 36.17 58.7751 36.782 59.4831 37.634C60.2031 38.474 60.5631 39.614 60.5631 41.054C60.5631 42.002 60.3831 42.848 60.0231 43.592C59.6751 44.336 59.2071 44.948 58.6191 45.428C58.0431 45.896 57.4131 46.208 56.7291 46.364C57.3291 46.436 57.9111 46.61 58.4751 46.886C59.0511 47.15 59.5671 47.522 60.0231 48.002C60.4911 48.47 60.8571 49.058 61.1211 49.766C61.3971 50.462 61.5351 51.29 61.5351 52.25C61.5351 53.582 61.2351 54.758 60.6351 55.778C60.0471 56.786 59.1831 57.578 58.0431 58.154C56.9151 58.718 55.5291 59 53.8851 59H44.7591V35.24ZM50.1411 54.698H52.5891C53.3571 54.698 53.9811 54.584 54.4611 54.356C54.9531 54.116 55.3131 53.78 55.5411 53.348C55.7691 52.904 55.8831 52.376 55.8831 51.764C55.8831 50.804 55.5831 50.102 54.9831 49.658C54.3951 49.202 53.5671 48.974 52.4991 48.974H50.1411V54.698ZM50.1411 44.762H52.3191C52.9551 44.762 53.4831 44.648 53.9031 44.42C54.3351 44.192 54.6591 43.874 54.8751 43.466C55.1031 43.046 55.2171 42.566 55.2171 42.026C55.2171 41.054 54.9411 40.4 54.3891 40.064C53.8371 39.716 53.0811 39.542 52.1211 39.542H50.1411V44.762ZM72.1472 35.24H77.4932L86.8712 59H81.1292L79.4012 54.23H70.2572L68.5112 59H62.7512L72.1472 35.24ZM72.0572 49.514H77.6192L74.8652 41.72H74.8112L72.0572 49.514ZM114.079 35.24V59H108.715V45.014L108.949 41.036L108.031 45.59L104.035 57.092H98.7613L94.7833 45.59L93.8833 41.036L94.1173 45.014V59H88.7353V35.24H96.2953L101.083 51.098L101.407 52.988L101.731 51.098L106.519 35.24H114.079ZM44.8646 68.24H53.0186C54.3746 68.24 55.6286 68.426 56.7806 68.798C57.9446 69.17 58.8806 69.782 59.5886 70.634C60.3086 71.474 60.6686 72.614 60.6686 74.054C60.6686 75.002 60.4886 75.848 60.1286 76.592C59.7806 77.336 59.3126 77.948 58.7246 78.428C58.1486 78.896 57.5186 79.208 56.8346 79.364C57.4346 79.436 58.0166 79.61 58.5806 79.886C59.1566 80.15 59.6726 80.522 60.1286 81.002C60.5966 81.47 60.9626 82.058 61.2266 82.766C61.5026 83.462 61.6406 84.29 61.6406 85.25C61.6406 86.582 61.3406 87.758 60.7406 88.778C60.1526 89.786 59.2886 90.578 58.1486 91.154C57.0206 91.718 55.6346 92 53.9906 92H44.8646V68.24ZM50.2466 87.698H52.6946C53.4626 87.698 54.0866 87.584 54.5666 87.356C55.0586 87.116 55.4186 86.78 55.6466 86.348C55.8746 85.904 55.9886 85.376 55.9886 84.764C55.9886 83.804 55.6886 83.102 55.0886 82.658C54.5006 82.202 53.6726 81.974 52.6046 81.974H50.2466V87.698ZM50.2466 77.762H52.4246C53.0606 77.762 53.5886 77.648 54.0086 77.42C54.4406 77.192 54.7646 76.874 54.9806 76.466C55.2086 76.046 55.3226 75.566 55.3226 75.026C55.3226 74.054 55.0466 73.4 54.4946 73.064C53.9426 72.716 53.1866 72.542 52.2266 72.542H50.2466V77.762ZM69.6719 80.102C69.6719 81.458 69.9479 82.688 70.4999 83.792C71.0639 84.884 71.8379 85.754 72.8219 86.402C73.8179 87.05 74.9699 87.374 76.2779 87.374C77.5859 87.374 78.7319 87.05 79.7159 86.402C80.7119 85.754 81.4859 84.884 82.0379 83.792C82.6019 82.688 82.8839 81.458 82.8839 80.102C82.8839 78.746 82.6019 77.522 82.0379 76.43C81.4859 75.338 80.7119 74.468 79.7159 73.82C78.7319 73.16 77.5859 72.83 76.2779 72.83C74.9699 72.83 73.8179 73.16 72.8219 73.82C71.8379 74.468 71.0639 75.338 70.4999 76.43C69.9479 77.522 69.6719 78.746 69.6719 80.102ZM64.0739 80.102C64.0739 78.374 64.3799 76.766 64.9919 75.278C65.6039 73.778 66.4619 72.47 67.5659 71.354C68.6699 70.238 69.9659 69.368 71.4539 68.744C72.9419 68.12 74.5499 67.808 76.2779 67.808C78.0299 67.808 79.6439 68.12 81.1199 68.744C82.6079 69.368 83.8979 70.238 84.9899 71.354C86.0939 72.47 86.9459 73.778 87.5459 75.278C88.1579 76.766 88.4639 78.374 88.4639 80.102C88.4639 81.842 88.1699 83.462 87.5819 84.962C86.9939 86.45 86.1539 87.758 85.0619 88.886C83.9699 90.002 82.6799 90.872 81.1919 91.496C79.7039 92.12 78.0659 92.432 76.2779 92.432C74.4539 92.432 72.7919 92.12 71.2919 91.496C69.8039 90.872 68.5199 90.002 67.4399 88.886C66.3599 87.758 65.5259 86.45 64.9379 84.962C64.3619 83.462 64.0739 81.842 64.0739 80.102ZM96.3907 80.102C96.3907 81.458 96.6667 82.688 97.2187 83.792C97.7827 84.884 98.5567 85.754 99.5407 86.402C100.537 87.05 101.689 87.374 102.997 87.374C104.305 87.374 105.451 87.05 106.435 86.402C107.431 85.754 108.205 84.884 108.757 83.792C109.321 82.688 109.603 81.458 109.603 80.102C109.603 78.746 109.321 77.522 108.757 76.43C108.205 75.338 107.431 74.468 106.435 73.82C105.451 73.16 104.305 72.83 102.997 72.83C101.689 72.83 100.537 73.16 99.5407 73.82C98.5567 74.468 97.7827 75.338 97.2187 76.43C96.6667 77.522 96.3907 78.746 96.3907 80.102ZM90.7927 80.102C90.7927 78.374 91.0987 76.766 91.7107 75.278C92.3227 73.778 93.1807 72.47 94.2847 71.354C95.3887 70.238 96.6847 69.368 98.1727 68.744C99.6607 68.12 101.269 67.808 102.997 67.808C104.749 67.808 106.363 68.12 107.839 68.744C109.327 69.368 110.617 70.238 111.709 71.354C112.813 72.47 113.665 73.778 114.265 75.278C114.877 76.766 115.183 78.374 115.183 80.102C115.183 81.842 114.889 83.462 114.301 84.962C113.713 86.45 112.873 87.758 111.781 88.886C110.689 90.002 109.399 90.872 107.911 91.496C106.423 92.12 104.785 92.432 102.997 92.432C101.173 92.432 99.5107 92.12 98.0107 91.496C96.5227 90.872 95.2387 90.002 94.1587 88.886C93.0787 87.758 92.2447 86.45 91.6567 84.962C91.0807 83.462 90.7927 81.842 90.7927 80.102ZM54.1654 100.808C55.6414 100.808 56.9314 100.97 58.0354 101.294C59.1394 101.618 60.0274 101.96 60.6994 102.32C61.3714 102.68 61.7794 102.92 61.9234 103.04L59.3314 107.378C59.1394 107.234 58.8094 107.024 58.3414 106.748C57.8854 106.472 57.3394 106.226 56.7034 106.01C56.0794 105.794 55.4254 105.686 54.7414 105.686C53.8174 105.686 53.0674 105.854 52.4914 106.19C51.9274 106.514 51.6454 107 51.6454 107.648C51.6454 108.092 51.7954 108.494 52.0954 108.854C52.4074 109.202 52.8754 109.538 53.4994 109.862C54.1354 110.174 54.9394 110.516 55.9114 110.888C56.7994 111.212 57.6334 111.596 58.4134 112.04C59.1934 112.484 59.8774 113.012 60.4654 113.624C61.0654 114.224 61.5394 114.92 61.8874 115.712C62.2354 116.504 62.4094 117.404 62.4094 118.412C62.4094 119.612 62.1634 120.656 61.6714 121.544C61.1794 122.42 60.5074 123.146 59.6554 123.722C58.8154 124.298 57.8554 124.724 56.7754 125C55.7074 125.288 54.5974 125.432 53.4454 125.432C51.8134 125.432 50.3494 125.246 49.0534 124.874C47.7694 124.502 46.7314 124.1 45.9394 123.668C45.1474 123.236 44.6734 122.948 44.5174 122.804L47.1994 118.286C47.3434 118.394 47.6194 118.568 48.0274 118.808C48.4474 119.048 48.9574 119.3 49.5574 119.564C50.1574 119.816 50.7934 120.032 51.4654 120.212C52.1494 120.392 52.8214 120.482 53.4814 120.482C54.5854 120.482 55.4134 120.272 55.9654 119.852C56.5174 119.42 56.7934 118.856 56.7934 118.16C56.7934 117.644 56.6194 117.182 56.2714 116.774C55.9234 116.366 55.4014 115.982 54.7054 115.622C54.0094 115.25 53.1394 114.86 52.0954 114.452C51.0514 114.032 50.0734 113.522 49.1614 112.922C48.2614 112.322 47.5294 111.572 46.9654 110.672C46.4014 109.772 46.1194 108.656 46.1194 107.324C46.1194 105.992 46.4914 104.84 47.2354 103.868C47.9914 102.884 48.9814 102.128 50.2054 101.6C51.4414 101.072 52.7614 100.808 54.1654 100.808ZM80.0339 112.724L89.0699 125H82.6439L75.3359 114.614V125H69.9539V101.24H75.3359V110.96L82.0679 101.24H88.1339L80.0339 112.724ZM101.926 116.45L93.7355 101.24H100.27L104.608 110.294L108.964 101.24H115.462L107.308 116.45V125H101.926V116.45Z" fill="#F1D7C3"/>
<circle cx="80" cy="80" r="68" stroke="#F1D7C3" stroke-width="4"/>
</svg>
